<svg width="40" height="40" viewBox="0 0 40 40" fill="none" xmlns="http://www.w3.org/2000/svg">
<path fill-rule="evenodd" clip-rule="evenodd" d="M38.3761 13.9173C38.2308 13.4763 37.795 13.1822 37.3592 13.1822H33.8728C33.7275 13.1822 33.437 13.0352 33.437 12.8882L30.3864 9.06585C30.2412 8.91884 29.8054 8.47779 29.079 8.33078C21.961 7.88974 18.0388 7.88974 10.9208 8.33078C10.1945 8.47779 9.90394 8.91884 9.61341 9.06585L6.56282 12.8882C6.56282 13.0352 6.27229 13.1822 6.12703 13.1822H2.64064C2.20485 13.1822 1.76905 13.4763 1.62378 13.9173L1.33325 15.2404C1.33325 15.3874 1.47852 15.3874 1.62378 15.5345L3.80277 16.5636L2.78591 17.5927C2.35011 18.3277 2.05958 19.2098 2.05958 20.3859V30.5299C2.05958 31.2649 2.64064 32 3.51224 32H8.01548C8.74181 32 9.46814 31.4119 9.46814 30.5299V29.0597C9.46814 28.7657 9.75867 28.4717 10.0492 28.4717H29.8054C30.0959 28.4717 30.3864 28.7657 30.3864 29.0597V30.5299C30.3864 31.2649 30.9675 32 31.8391 32H36.3423C37.0687 32 37.795 31.4119 37.795 30.5299V20.3859C37.795 19.2098 37.5045 18.3277 37.0687 17.5927L36.1971 16.5636L38.3761 15.5345C38.6666 15.3874 38.6666 15.3874 38.6666 15.2404L38.3761 13.9173ZM11.0661 21.415C11.0661 21.562 10.9208 21.709 10.7755 21.709L5.54596 21.562C4.81963 21.562 4.23857 20.827 4.23857 20.0919V19.0628C4.23857 18.7688 4.5291 18.4747 4.67437 18.6217L9.46814 19.2098C10.485 19.3568 11.0661 20.0919 11.0661 21.121V21.415ZM7.14389 15.8285C6.85336 15.8285 6.70809 15.6815 6.85336 15.5345L10.7755 10.536C11.0661 10.242 11.2113 10.0949 11.5019 10.0949C18.4746 9.65391 21.5252 9.65391 28.498 10.0949C28.7885 10.0949 28.9338 10.242 29.079 10.389L33.0012 15.3874C33.1465 15.5345 33.1465 15.8285 32.7107 15.6815C22.9779 15.3874 17.022 15.2404 7.14389 15.8285ZM35.9065 20.0919C35.9065 20.827 35.3255 21.562 34.5991 21.562L29.3696 21.709C29.2243 21.709 29.079 21.562 29.079 21.415V21.121C29.079 20.0919 29.8054 19.2098 30.8222 19.0628L35.4707 18.4747C35.7613 18.4747 35.9065 18.6217 35.9065 18.9158V20.0919Z" fill="url(#paint0_linear_19617_15491)"/>
<defs>
<linearGradient id="paint0_linear_19617_15491" x1="38.6666" y1="8" x2="34.7478" y2="36.5814" gradientUnits="userSpaceOnUse">
<stop stop-color="#00C6FF"/>
<stop offset="1" stop-color="#0072FF"/>
</linearGradient>
</defs>
</svg>
