<svg width="40" height="40" viewBox="0 0 40 40" fill="none" xmlns="http://www.w3.org/2000/svg">
<g clip-path="url(#clip0_19617_15579)">
<path d="M38.8334 1.16645C38.0834 0.416445 36.7501 -0.0335547 35.3334 -0.000221395C33.9501 0.0164453 32.7501 0.449779 32.0501 1.18311L24.8001 8.89978C24.5668 9.14978 24.2168 9.26645 23.8834 9.18311L3.61676 4.89978C2.85009 4.73311 2.06676 4.94978 1.51676 5.51645C0.950095 6.08311 0.683428 6.88311 0.766762 7.68311C0.866762 8.49978 1.33343 9.19978 2.06676 9.63311L15.9501 16.9831C16.2001 17.1331 16.3668 17.3831 16.4001 17.6831C16.4501 17.9664 16.3501 18.2498 16.1668 18.4664L7.88343 27.3831L3.63343 25.5164C2.6501 25.0831 1.50009 25.2998 0.733428 26.0664C0.216762 26.5831 -0.0499051 27.2998 9.48972e-05 28.0164C0.0667616 28.7498 0.433428 29.4164 1.01676 29.8331L6.2501 33.6831C6.4001 33.7998 6.53343 33.9331 6.6501 34.0998L10.2168 38.9831C10.6334 39.5664 11.3001 39.9331 12.0334 39.9998H12.2168C12.8834 39.9998 13.5001 39.7331 13.9834 39.2664C14.7501 38.4998 14.9668 37.3664 14.5334 36.3664L12.6668 32.0998L16.6834 28.3664C16.6668 28.1164 16.6668 27.8498 16.6668 27.5831V20.8998C16.6668 18.9331 17.9168 17.1831 19.7834 16.5498L28.5168 13.5831C29.4668 13.2498 30.5334 13.2498 31.4834 13.5831L32.4668 13.9164L38.8168 7.94978C39.5501 7.24978 39.9834 6.06645 40.0001 4.66645C40.0168 3.23311 39.5834 1.91645 38.8334 1.16645V1.16645Z" fill="url(#paint0_linear_19617_15579)"/>
<path d="M39.1517 19.7102L30.4017 16.7335C30.1417 16.6435 29.8583 16.6435 29.5983 16.7335L20.8483 19.7102C20.34 19.8818 20 20.3568 20 20.8935V27.5902C20 35.7635 29.1233 39.7369 29.5117 39.9019C29.825 40.0335 30.175 40.0335 30.4883 39.9019C30.8767 39.7352 40 35.7635 40 27.5902V20.8935C40 20.3568 39.66 19.8818 39.1517 19.7102ZM35.4767 26.0302L30.8933 31.8635C30.31 32.6085 29.2167 32.7169 28.4983 32.1002L25.5817 29.6002C24.8817 29.0019 24.8 27.9485 25.4017 27.2502C26 26.5519 27.0533 26.4719 27.75 27.0702L29.3467 28.4385L32.855 23.9735C33.4233 23.2502 34.47 23.1218 35.195 23.6935C35.92 24.2585 36.0467 25.3069 35.4767 26.0302V26.0302Z" fill="url(#paint1_linear_19617_15579)"/>
</g>
<defs>
<linearGradient id="paint0_linear_19617_15579" x1="40.0006" y1="-0.00195312" x2="30.1008" y2="46.4202" gradientUnits="userSpaceOnUse">
<stop stop-color="#00C6FF"/>
<stop offset="1" stop-color="#0072FF"/>
</linearGradient>
<linearGradient id="paint1_linear_19617_15579" x1="40" y1="16.666" x2="33.3658" y2="43.3265" gradientUnits="userSpaceOnUse">
<stop stop-color="#00C6FF"/>
<stop offset="1" stop-color="#0072FF"/>
</linearGradient>
<clipPath id="clip0_19617_15579">
<rect width="40" height="40" fill="white"/>
</clipPath>
</defs>
</svg>
