<svg width="40" height="40" viewBox="0 0 40 40" fill="none" xmlns="http://www.w3.org/2000/svg">
<path d="M39.4154 0.834617C39.4154 0.819965 39.401 0.819965 39.401 0.805312C39.3576 0.746702 39.2999 0.702745 39.2421 0.658787C38.7364 0.26317 38.014 -0.0738376 37.2772 0.0140773H37.2627C36.6848 0.0726873 36.1069 0.14595 35.529 0.32178C33.5786 0.893227 31.8593 2.13869 30.0678 3.76512C29.1287 4.61496 28.2184 5.49411 27.3371 6.35861C26.6581 7.01797 25.9501 7.70664 25.2422 8.366C25.0255 8.55648 24.751 8.68836 24.6499 8.70301C23.7541 8.45392 22.8583 8.13156 21.977 7.80921C21.6447 7.69199 21.3124 7.57477 20.9801 7.45755L11.8058 4.30726C11.6324 4.234 11.4735 4.19004 11.3146 4.14608C11.1557 4.10212 11.0112 4.05817 10.8956 3.99956C9.06075 2.97388 7.41371 3.31089 5.99783 5.03988C5.5933 5.55272 5.21766 6.09486 5.31879 6.71027C5.41992 7.31102 5.92559 7.69199 6.40237 7.98504C7.22589 8.49787 8.07831 9.01071 8.90183 9.5089C10.8089 10.6664 12.6727 12.117 14.5509 13.3918C15.36 13.934 16.1979 14.4321 16.8914 15.1648C17.0937 15.3699 17.4693 15.7948 17.686 16C17.6138 16.0732 17.5416 16.1465 17.4693 16.2344C13.9296 19.9561 10.78 23.2822 8.94517 25.2457C8.71401 25.4948 8.36726 25.5827 8.03496 25.4948L2.76154 24.0442C2.15474 23.883 1.51904 24.0442 1.05671 24.4691L0.103159 25.3629C-0.0557662 25.5094 -0.0268707 25.7732 0.16095 25.8757L5.85336 29.3191C5.85336 29.3191 7.84714 30.6525 8.7429 32.484L11.7047 38.4915C11.8058 38.682 12.0514 38.726 12.2104 38.5795L13.1639 37.6856C13.6262 37.2607 13.8285 36.616 13.7129 36.0006L12.6871 30.5792C12.6293 30.2422 12.7449 29.8905 13.005 29.6707C15.0855 27.9417 18.6107 25.0112 22.5405 21.6851C22.6127 21.6265 22.6705 21.5679 22.7428 21.5093C22.9306 21.7291 23.4218 22.2566 23.6096 22.4617C24.2742 23.2236 24.8521 24.264 25.3433 25.1138C26.4558 27.0919 27.6116 28.9235 28.6085 30.9455C29.042 31.81 29.4754 32.7038 29.9233 33.583C30.1833 34.0958 30.5301 34.6379 31.108 34.7698C31.7003 34.9163 32.2638 34.5793 32.7984 34.1837C34.5899 32.865 35.0522 31.2239 34.1709 29.3044C34.1131 29.1872 34.0842 29.0407 34.0553 28.8795C34.0264 28.7183 33.9831 28.5425 33.9253 28.3667L31.4981 18.8572C31.4114 18.5055 31.3103 18.1685 31.2236 17.8315C30.978 16.9231 30.7179 15.9853 30.5445 15.0622C30.559 14.9596 30.7179 14.6959 30.9202 14.4907C31.6137 13.8314 32.336 13.1574 33.044 12.5273C33.9542 11.6921 34.8933 10.8423 35.7891 9.94847C37.5083 8.24878 38.852 6.73957 39.5599 4.80544C39.7622 4.234 39.8778 3.6479 39.9789 3.0618V3.04714C40.08 2.29987 39.8055 1.39141 39.4154 0.834617Z" fill="url(#paint0_linear_19617_14170)"/>
<defs>
<linearGradient id="paint0_linear_19617_14170" x1="40" y1="0" x2="30.7222" y2="45.0007" gradientUnits="userSpaceOnUse">
<stop stop-color="#00C6FF"/>
<stop offset="1" stop-color="#0072FF"/>
</linearGradient>
</defs>
</svg>
