<svg width="40" height="40" viewBox="0 0 40 40" fill="none" xmlns="http://www.w3.org/2000/svg">
<path fill-rule="evenodd" clip-rule="evenodd" d="M24.7163 38.7819V3.27616C24.7163 2.60413 24.1848 2.0581 23.5306 2.0581H19.9734C20.0279 2.0021 20.0552 1.9181 20.0552 1.83409V0.336017C20.0552 0.140007 19.9189 0 19.7281 0H8.97465C8.79747 0 8.64755 0.140007 8.64755 0.336017V1.83409C8.64755 1.9181 8.67481 2.0021 8.72932 2.0581H5.18574C4.53154 2.0581 4 2.60413 4 3.27616V38.7819C4 39.454 4.53154 40 5.18574 40H23.5306C24.1848 40 24.7163 39.454 24.7163 38.7819ZM8.96079 10.4726H11.7684C12.0137 10.4726 12.2182 10.2626 12.2182 10.0106V7.11241C12.2182 6.8604 12.0137 6.65039 11.7684 6.65039H8.96079C8.71547 6.65039 8.51103 6.8604 8.51103 7.11241V10.0106C8.51103 10.2626 8.71547 10.4726 8.96079 10.4726ZM17.3564 10.4726H20.1776C20.423 10.4726 20.6274 10.2626 20.6274 10.0106V7.11241C20.6274 6.8604 20.423 6.65039 20.1776 6.65039H17.3564C17.1111 6.65039 16.9066 6.8604 16.9066 7.11241V10.0106C16.9066 10.2626 17.1111 10.4726 17.3564 10.4726ZM11.7685 18.2986H8.96084C8.71552 18.2986 8.51108 18.0886 8.51108 17.8366V14.9384C8.51108 14.6864 8.71552 14.4764 8.96084 14.4764H11.7685C12.0138 14.4764 12.2182 14.6864 12.2182 14.9384V17.8366C12.2182 18.1026 12.0138 18.2986 11.7685 18.2986ZM17.3564 18.2988H20.1776C20.423 18.2988 20.6274 18.1027 20.6274 17.8367V14.9386C20.6274 14.6866 20.423 14.4766 20.1776 14.4766H17.3564C17.1111 14.4766 16.9066 14.6866 16.9066 14.9386V17.8367C16.9066 18.0887 17.1111 18.2988 17.3564 18.2988ZM20.1776 26.5455H17.3564C17.1111 26.5455 16.9066 26.3355 16.9066 26.0835V23.1853C16.9066 22.9333 17.1111 22.7233 17.3564 22.7233H20.1776C20.423 22.7233 20.6274 22.9333 20.6274 23.1853V26.0835C20.6274 26.3355 20.423 26.5455 20.1776 26.5455ZM17.3564 34.5396H20.1776C20.423 34.5396 20.6274 34.3296 20.6274 34.0776V31.1795C20.6274 30.9275 20.423 30.7174 20.1776 30.7174H17.3564C17.1111 30.7174 16.9066 30.9275 16.9066 31.1795V34.0776C16.9066 34.3296 17.1111 34.5396 17.3564 34.5396ZM11.7685 26.5453H8.96084C8.71552 26.5453 8.51108 26.3353 8.51108 26.0833V23.1851C8.51108 22.9331 8.71552 22.7231 8.96084 22.7231H11.7685C12.0138 22.7231 12.2182 22.9331 12.2182 23.1851V26.0833C12.2182 26.3353 12.0138 26.5453 11.7685 26.5453ZM8.96084 34.5396H11.7685C12.0138 34.5396 12.2182 34.3296 12.2182 34.0776V31.1794C12.2182 30.9274 12.0138 30.7174 11.7685 30.7174H8.96084C8.71552 30.7174 8.51108 30.9274 8.51108 31.1794V34.0776C8.51108 34.3296 8.71552 34.5396 8.96084 34.5396Z" fill="url(#paint0_linear_19617_15470)"/>
<path fill-rule="evenodd" clip-rule="evenodd" d="M27.7271 39.9995H35.1141C35.5911 39.9995 35.9864 39.5935 36 39.0895V11.2141C36 10.7101 35.6048 10.304 35.1141 10.304H27.7271C27.2364 10.304 26.8412 10.7101 26.8412 11.2141V39.0895C26.8412 39.5935 27.2364 39.9995 27.7271 39.9995ZM32.7998 17.7389H29.9786C29.7332 17.7389 29.5288 17.5288 29.5288 17.2768V14.3787C29.5288 14.1267 29.7332 13.9167 29.9786 13.9167H32.7998C33.0451 13.9167 33.2496 14.1267 33.2496 14.3787V17.2768C33.2496 17.5288 33.0451 17.7389 32.7998 17.7389ZM32.7994 25.565H29.9782C29.7328 25.565 29.5284 25.355 29.5284 25.103V22.2048C29.5284 21.9528 29.7328 21.7428 29.9782 21.7428H32.7994C33.0447 21.7428 33.2492 21.9528 33.2492 22.2048V25.103C33.2492 25.369 33.0447 25.565 32.7994 25.565ZM29.9782 33.8117H32.7994C33.0447 33.8117 33.2492 33.6017 33.2492 33.3497V30.4515C33.2492 30.1995 33.0447 29.9895 32.7994 29.9895H29.9782C29.7328 29.9895 29.5284 30.1995 29.5284 30.4515V33.3497C29.5284 33.6017 29.7328 33.8117 29.9782 33.8117Z" fill="url(#paint1_linear_19617_15470)"/>
<defs>
<linearGradient id="paint0_linear_19617_15470" x1="36" y1="0" x2="23.9202" y2="45.3107" gradientUnits="userSpaceOnUse">
<stop stop-color="#00C6FF"/>
<stop offset="1" stop-color="#0072FF"/>
</linearGradient>
<linearGradient id="paint1_linear_19617_15470" x1="36" y1="0" x2="23.9202" y2="45.3107" gradientUnits="userSpaceOnUse">
<stop stop-color="#00C6FF"/>
<stop offset="1" stop-color="#0072FF"/>
</linearGradient>
</defs>
</svg>
