<svg width="26" height="24" viewBox="0 0 26 24" fill="none" xmlns="http://www.w3.org/2000/svg">
<path d="M1 20.5321V10.5829C1 9.51522 1.89504 8.64648 2.99508 8.64648H20.8558C21.9558 8.64648 22.8509 9.51522 22.8509 10.5829V20.4641C22.8509 21.5319 21.9558 22.4006 20.8558 22.4006H2.92008C1.86003 22.3957 1 21.561 1 20.5321Z" stroke="#828282" stroke-miterlimit="10"/>
<path d="M22.9908 14.5668L23.5558 14.4309C24.5808 14.1785 25.2008 13.1739 24.9408 12.179L23.9108 8.21386L22.5607 3.00147C22.3007 2.00655 21.2657 1.40475 20.2406 1.65712L3.64499 5.70473C2.61995 5.95709 1.99992 6.96172 2.25993 7.95663L2.50494 8.71374" stroke="#828282" stroke-miterlimit="10"/>
<path d="M1 12.3535H22.5809" stroke="#828282" stroke-miterlimit="10"/>
<path d="M1 15.9062H22.5809" stroke="#828282" stroke-miterlimit="10"/>
</svg>
