<svg width="24" height="24" viewBox="0 0 24 24" fill="none" xmlns="http://www.w3.org/2000/svg">
<path d="M11.9997 11.5717C13.5777 11.5717 14.8569 10.2925 14.8569 8.71456C14.8569 7.13661 13.5777 5.85742 11.9997 5.85742C10.4218 5.85742 9.14258 7.13661 9.14258 8.71456C9.14258 10.2925 10.4218 11.5717 11.9997 11.5717Z" stroke="#107CEC" stroke-linecap="round" stroke-linejoin="round"/>
<path d="M1.27344 6.3365H2.8119V4.90792C2.8119 4.15016 3.13607 3.42344 3.71311 2.88762C4.29014 2.3518 5.07277 2.05078 5.88882 2.05078H18.1965C19.0126 2.05078 19.7952 2.3518 20.3722 2.88762C20.9493 3.42344 21.2734 4.15016 21.2734 4.90792V19.1936C21.2734 19.9514 20.9493 20.6781 20.3722 21.2139C19.7952 21.7498 19.0126 22.0508 18.1965 22.0508H5.88882C5.07277 22.0508 4.29014 21.7498 3.71311 21.2139C3.13607 20.6781 2.8119 19.9514 2.8119 19.1936V17.7651H1.27344" stroke="#107CEC" stroke-linecap="round" stroke-linejoin="round"/>
<path d="M1 11.5723H2.42857" stroke="#107CEC" stroke-linecap="round" stroke-linejoin="round"/>
<path d="M1 8.71484H2.42857" stroke="#107CEC" stroke-linecap="round" stroke-linejoin="round"/>
<path d="M1 14.4297H2.42857" stroke="#107CEC" stroke-linecap="round" stroke-linejoin="round"/>
<path fill-rule="evenodd" clip-rule="evenodd" d="M16.2863 15.858V14.4294C16.2863 13.6716 15.9853 12.9449 15.4494 12.4091C14.9136 11.8733 14.1869 11.5723 13.4291 11.5723H10.572C9.81423 11.5723 9.0875 11.8733 8.55168 12.4091C8.01586 12.9449 7.71484 13.6716 7.71484 14.4294V15.858C7.71484 16.2369 7.86535 16.6002 8.13326 16.8681C8.40117 17.136 8.76453 17.2866 9.14342 17.2866H14.8577C15.2366 17.2866 15.5999 17.136 15.8679 16.8681C16.1358 16.6002 16.2863 16.2369 16.2863 15.858Z" stroke="#107CEC" stroke-linecap="round" stroke-linejoin="round"/>
</svg>
