<svg width="24" height="24" viewBox="0 0 24 24" fill="none" xmlns="http://www.w3.org/2000/svg">
<mask id="path-1-inside-1_19549_260434" fill="white">
<path d="M10.6811 6.10595C10.7937 6.10595 10.8999 6.05662 10.9672 5.97284C11.0347 5.88905 11.0557 5.78085 11.0236 5.68057C10.7676 4.86977 10.3252 4.1201 9.72649 3.48349C9.24414 3.00749 8.52619 2.8037 7.83929 2.94781C7.74442 2.98145 7.66961 3.051 7.63334 3.13899C7.61363 3.18848 7.59898 3.23959 7.58974 3.29167C7.57875 3.35345 7.57282 3.41589 7.57178 3.47848V3.48382C7.57614 4.01206 7.80563 4.51734 8.21038 4.88918C8.89676 5.44395 9.70452 5.85412 10.5782 6.09139C10.6117 6.10061 10.6462 6.10562 10.6811 6.10595ZM8.7168 4.42013C8.57502 4.28847 8.46376 4.1311 8.38965 3.95804V3.9548C8.37395 3.91809 8.36035 3.88121 8.34867 3.84579C8.34256 3.82654 8.3382 3.80843 8.33297 3.78951C8.32757 3.77058 8.32286 3.75635 8.31937 3.73985C8.31571 3.72319 8.31501 3.71656 8.31257 3.70475C8.30211 3.65526 8.29478 3.60528 8.29077 3.55498C8.64303 3.57973 8.97384 3.72077 9.22356 3.95254C9.57861 4.32487 9.86478 4.74911 10.0704 5.20829C9.57478 5.01695 9.11666 4.75057 8.71505 4.42013H8.7168Z"/>
</mask>
<path d="M10.6811 6.10595C10.7937 6.10595 10.8999 6.05662 10.9672 5.97284C11.0347 5.88905 11.0557 5.78085 11.0236 5.68057C10.7676 4.86977 10.3252 4.1201 9.72649 3.48349C9.24414 3.00749 8.52619 2.8037 7.83929 2.94781C7.74442 2.98145 7.66961 3.051 7.63334 3.13899C7.61363 3.18848 7.59898 3.23959 7.58974 3.29167C7.57875 3.35345 7.57282 3.41589 7.57178 3.47848V3.48382C7.57614 4.01206 7.80563 4.51734 8.21038 4.88918C8.89676 5.44395 9.70452 5.85412 10.5782 6.09139C10.6117 6.10061 10.6462 6.10562 10.6811 6.10595ZM8.7168 4.42013C8.57502 4.28847 8.46376 4.1311 8.38965 3.95804V3.9548C8.37395 3.91809 8.36035 3.88121 8.34867 3.84579C8.34256 3.82654 8.3382 3.80843 8.33297 3.78951C8.32757 3.77058 8.32286 3.75635 8.31937 3.73985C8.31571 3.72319 8.31501 3.71656 8.31257 3.70475C8.30211 3.65526 8.29478 3.60528 8.29077 3.55498C8.64303 3.57973 8.97384 3.72077 9.22356 3.95254C9.57861 4.32487 9.86478 4.74911 10.0704 5.20829C9.57478 5.01695 9.11666 4.75057 8.71505 4.42013H8.7168Z" fill="#828282"/>
<path d="M10.6811 6.10595L10.6625 8.10586L10.6718 8.10595H10.6811V6.10595ZM10.9672 5.97284L9.40971 4.71821L9.40813 4.72018L10.9672 5.97284ZM11.0236 5.68057L9.11637 6.28274L9.11872 6.29008L11.0236 5.68057ZM9.72649 3.48349L11.1835 2.11336L11.1579 2.08617L11.1313 2.05994L9.72649 3.48349ZM7.83929 2.94781L7.42863 0.990424L7.2973 1.01798L7.17082 1.06283L7.83929 2.94781ZM7.63334 3.13899L5.78429 2.37672L5.77968 2.38792L5.7752 2.39916L7.63334 3.13899ZM7.58974 3.29167L9.55885 3.64181L9.55897 3.64114L7.58974 3.29167ZM7.57178 3.47848L5.57206 3.44505L5.57178 3.46176V3.47848H7.57178ZM7.57178 3.48382H5.57178V3.49207L5.57185 3.50032L7.57178 3.48382ZM8.21038 4.88918L6.85731 6.362L6.90394 6.40484L6.95318 6.44464L8.21038 4.88918ZM10.5782 6.09139L11.1091 4.16314L11.1024 4.1613L10.5782 6.09139ZM8.7168 4.42013V6.42013H13.8097L10.0777 2.95458L8.7168 4.42013ZM8.38965 3.95804H6.38965V4.36827L6.55115 4.74538L8.38965 3.95804ZM8.38965 3.9548H10.3896V3.54526L10.2287 3.16867L8.38965 3.9548ZM8.34867 3.84579L6.44223 4.45035L6.44572 4.46135L6.44933 4.4723L8.34867 3.84579ZM8.33297 3.78951L10.2607 3.25658L10.2584 3.24835L10.256 3.24014L8.33297 3.78951ZM8.31937 3.73985L10.2761 3.32618L10.2745 3.31831L10.2727 3.31045L8.31937 3.73985ZM8.31257 3.70475L10.2712 3.29976L10.2693 3.29108L8.31257 3.70475ZM8.29077 3.55498L8.43093 1.5599L6.11235 1.39702L6.2971 3.71395L8.29077 3.55498ZM9.22356 3.95254L10.671 2.5723L10.6288 2.52814L10.5841 2.48663L9.22356 3.95254ZM10.0704 5.20829L9.35006 7.07407L13.8802 8.82304L11.8958 4.39097L10.0704 5.20829ZM8.71505 4.42013V2.42013H3.13642L7.44433 5.96456L8.71505 4.42013ZM10.6811 8.10595C11.3647 8.10595 12.058 7.8085 12.5264 7.22549L9.40813 4.72018C9.74191 4.30473 10.2228 4.10595 10.6811 4.10595V8.10595ZM12.5248 7.22746C13.0018 6.63525 13.1712 5.82983 12.9284 5.07106L9.11872 6.29008C8.9401 5.73187 9.06765 5.14286 9.40971 4.71821L12.5248 7.22746ZM12.9308 5.0784C12.5818 3.97325 11.9823 2.96286 11.1835 2.11336L8.26953 4.85362C8.668 5.27735 8.95332 5.76628 9.11638 6.28274L12.9308 5.0784ZM11.1313 2.05994C10.1515 1.09302 8.7438 0.714506 7.42863 0.990424L8.24994 4.9052C8.27188 4.90059 8.29481 4.90181 8.31347 4.9071C8.33216 4.91241 8.33221 4.91744 8.32168 4.90705L11.1313 2.05994ZM7.17082 1.06283C6.57403 1.27447 6.04996 1.73229 5.78429 2.37672L9.48238 3.90125C9.28926 4.36971 8.91481 4.68844 8.50775 4.83279L7.17082 1.06283ZM5.7752 2.39916C5.70643 2.5719 5.65397 2.75366 5.62051 2.9422L9.55897 3.64114C9.544 3.72552 9.52083 3.80506 9.49147 3.87881L5.7752 2.39916ZM5.62063 2.94153C5.59068 3.10996 5.57484 3.27835 5.57206 3.44505L9.5715 3.51191C9.5708 3.55342 9.56683 3.59695 9.55885 3.64181L5.62063 2.94153ZM5.57178 3.47848V3.48382H9.57178V3.47848H5.57178ZM5.57185 3.50032C5.58098 4.60702 6.06281 5.63209 6.85731 6.362L9.56345 3.41635C9.55512 3.4087 9.55726 3.40784 9.5618 3.41784C9.56648 3.42814 9.57153 3.44549 9.57171 3.46731L5.57185 3.50032ZM6.95318 6.44464C7.86085 7.17826 8.91966 7.71341 10.054 8.02148L11.1024 4.1613C10.4894 3.99483 9.93268 3.70963 9.46758 3.33372L6.95318 6.44464ZM10.0473 8.01963C10.2412 8.07303 10.4479 8.10387 10.6625 8.10586L10.6996 4.10603C10.8446 4.10738 10.9821 4.12819 11.1091 4.16315L10.0473 8.01963ZM10.0777 2.95458C10.136 3.00869 10.1897 3.08087 10.2282 3.1707L6.55115 4.74538C6.73784 5.18134 7.01403 5.56825 7.35585 5.88568L10.0777 2.95458ZM10.3896 3.95804V3.9548H6.38965V3.95804H10.3896ZM10.2287 3.16867C10.2386 3.19201 10.2447 3.20928 10.248 3.21928L6.44933 4.4723C6.47599 4.55314 6.50926 4.64417 6.55063 4.74094L10.2287 3.16867ZM10.2551 3.24123C10.2602 3.25717 10.2641 3.27042 10.2668 3.27992C10.2695 3.28916 10.2712 3.29565 10.2716 3.29701C10.2718 3.29772 10.2718 3.29778 10.2714 3.29638C10.2712 3.29568 10.271 3.29492 10.2707 3.29368C10.2704 3.29258 10.27 3.29102 10.2695 3.28939C10.2679 3.2832 10.2646 3.27094 10.2607 3.25658L6.40528 4.32243C6.40393 4.31753 6.40317 4.31463 6.404 4.31777C6.40411 4.31816 6.40703 4.32918 6.40941 4.33804C6.415 4.35876 6.42632 4.40018 6.44223 4.45035L10.2551 3.24123ZM10.256 3.24014C10.252 3.22599 10.2484 3.21396 10.2472 3.20961C10.2451 3.20265 10.2465 3.20729 10.248 3.21274C10.2521 3.22695 10.2641 3.26951 10.2761 3.32618L6.36262 4.15353C6.37809 4.22669 6.39421 4.28462 6.40286 4.3148C6.40671 4.32823 6.4105 4.34101 6.41096 4.34256C6.41219 4.34672 6.41124 4.34356 6.4099 4.33887L10.256 3.24014ZM10.2727 3.31045C10.275 3.32088 10.2773 3.33198 10.2796 3.34351C10.2818 3.35489 10.2834 3.36366 10.284 3.36676C10.2841 3.36738 10.2842 3.36774 10.2841 3.36746C10.2841 3.36731 10.2841 3.36716 10.284 3.36677C10.2839 3.36644 10.2838 3.36591 10.2837 3.36534C10.2833 3.3632 10.2825 3.35829 10.2814 3.35234C10.279 3.33931 10.2756 3.32128 10.2711 3.29977L6.354 4.10974C6.35077 4.09413 6.34837 4.08136 6.34691 4.07341C6.34629 4.07001 6.34586 4.0676 6.34593 4.06797C6.34608 4.06884 6.34589 4.06779 6.34622 4.06964C6.3464 4.07064 6.34669 4.07228 6.34704 4.07421C6.34854 4.08253 6.35114 4.09681 6.35461 4.11449C6.35811 4.13231 6.36189 4.15049 6.36601 4.16925L10.2727 3.31045ZM10.2693 3.29108C10.2762 3.32345 10.2815 3.35854 10.2844 3.39601L6.2971 3.71395C6.30811 3.85203 6.32805 3.98707 6.35582 4.11843L10.2693 3.29108ZM8.15062 5.55007C8.06531 5.54407 7.96057 5.509 7.86301 5.41845L10.5841 2.48663C9.98711 1.93253 9.22075 1.61538 8.43093 1.5599L8.15062 5.55007ZM7.77617 5.33278C7.97789 5.54432 8.13466 5.77917 8.24501 6.02561L11.8958 4.39097C11.5949 3.71905 11.1793 3.10541 10.671 2.5723L7.77617 5.33278ZM10.7907 3.34251C10.4902 3.22648 10.2187 3.06732 9.98577 2.8757L7.44433 5.96456C8.01466 6.43382 8.6594 6.80743 9.35006 7.07407L10.7907 3.34251ZM8.71505 6.42013H8.7168V2.42013H8.71505V6.42013Z" fill="#828282" mask="url(#path-1-inside-1_19549_260434)"/>
<path d="M21.6429 6.33505H16.13C16.3684 6.18399 16.5923 6.014 16.7989 5.82719C18.0765 4.63872 18.1183 2.83678 17.3022 2.07983C16.4861 1.32289 14.5439 1.36106 13.2612 2.54726C12.7366 3.0768 12.3104 3.68332 12 4.34225C11.6896 3.68284 11.263 3.07599 10.738 2.54629C9.45658 1.36138 7.51392 1.32257 6.69761 2.07951C5.88114 2.83645 5.92334 4.6384 7.20107 5.82719C7.40789 6.014 7.6318 6.18399 7.87001 6.33505H2.35714C2.15991 6.33505 2 6.48337 2 6.6663V9.97873C2 10.1617 2.15991 10.31 2.35714 10.31H3.07143V19.916C3.07265 20.8302 3.87151 21.5711 4.85714 21.5723H19.1429C20.1287 21.5711 20.9275 20.8302 20.9286 19.916V10.31H21.6429C21.8401 10.31 22 10.1617 22 9.97873V6.6663C22 6.48337 21.8401 6.33505 21.6429 6.33505ZM13.7665 3.01534C14.793 2.06625 16.2901 2.07724 16.7975 2.54791C17.305 3.01857 17.3172 4.40646 16.2939 5.35879C15.8253 5.76055 15.2903 6.09002 14.7093 6.33505H12.5751C12.5751 6.3281 12.5751 6.3205 12.5751 6.31354C12.5751 6.23801 12.569 6.16151 12.5612 6.08452C12.5582 6.05912 12.5551 6.03389 12.5519 6.00801C12.5437 5.94445 12.5336 5.88105 12.5214 5.81797C12.5176 5.79581 12.5136 5.77349 12.5094 5.75166C12.4923 5.66917 12.4736 5.58798 12.4522 5.50953C12.4494 5.49821 12.4461 5.48834 12.4433 5.47637C12.4243 5.4078 12.4048 5.34391 12.3847 5.27776C12.3819 5.2687 12.3793 5.25883 12.3765 5.24978C12.6691 4.42426 13.1424 3.66343 13.7665 3.01534ZM13.4286 9.64749H10.5714V6.99754H13.4286V9.64749ZM7.70644 5.35911C6.68297 4.40679 6.695 3.0189 7.20264 2.54791C7.7101 2.07692 9.20651 2.06592 10.2326 3.01437C10.8824 3.68947 11.3694 4.48555 11.6612 5.34925C11.7015 5.46554 11.7325 5.57714 11.7618 5.6855C11.77 5.71656 11.7768 5.74664 11.7839 5.77721C11.8033 5.85808 11.8188 5.93523 11.8305 6.00915C11.8343 6.03422 11.8394 6.06009 11.8425 6.08452C11.8539 6.16717 11.86 6.25046 11.8608 6.33376H9.29074C8.71003 6.08921 8.17519 5.76023 7.70644 5.35911ZM2.71429 6.99754H9.85714V9.64749H2.71429V6.99754ZM3.78571 19.916V10.31H10.5714V20.9098H4.85714C4.26545 20.9098 3.78571 20.4648 3.78571 19.916ZM11.2857 20.9098V10.31H12.7143V20.9098H11.2857ZM20.2143 19.916C20.2143 20.4648 19.7347 20.9098 19.1429 20.9098H13.4286V10.31H20.2143V19.916ZM21.2857 9.64749H14.1429V6.99754H21.2857V9.64749Z" fill="#828282"/>
<path d="M13.3162 6.1084C13.3505 6.1084 13.3847 6.10387 13.4176 6.09481C14.2924 5.8577 15.101 5.44672 15.7872 4.89033C16.2954 4.43956 16.5144 3.77643 16.3658 3.13901C16.3299 3.05135 16.2551 2.98212 16.1606 2.94864C15.4733 2.81084 14.7583 3.01399 14.2723 3.4853C13.6726 4.12174 13.2295 4.87173 12.9737 5.68302C12.9417 5.7833 12.9625 5.89166 13.03 5.97528C13.0975 6.05907 13.2035 6.1084 13.3162 6.1084ZM14.7773 3.9537C15.0274 3.72208 15.3586 3.58121 15.7108 3.55614C15.6841 3.88302 15.5321 4.19032 15.2824 4.42226C14.8806 4.75382 14.4218 5.02069 13.9251 5.21203C14.1316 4.7514 14.4197 4.32618 14.7773 3.9537Z" fill="#828282"/>
</svg>
