<svg width="24" height="24" viewBox="0 0 24 24" fill="none" xmlns="http://www.w3.org/2000/svg">
<path d="M17.4405 2.40039H3.52054C2.00054 2.40039 0.800537 3.63116 0.800537 5.19013V13.7235C0.800537 15.2824 2.00054 16.5132 3.52054 16.5132H3.92054L4.56054 18.8106C4.64054 19.2209 5.20054 19.4671 5.68054 19.1389L10.0805 16.3491H17.5205C19.0405 16.3491 20.2405 15.1183 20.2405 13.5594V5.19013C20.1605 3.63116 18.9605 2.40039 17.4405 2.40039Z" stroke="#828282" stroke-miterlimit="10"/>
<path d="M10.7205 18.3177H13.7605L18.9605 21.5998L19.8405 18.3177H20.4805C22.0005 18.3177 23.2005 17.087 23.2005 15.528V7.07671C23.2005 6.17415 22.8005 5.43569 22.1605 4.86133" stroke="#828282" stroke-miterlimit="10" stroke-linecap="round" stroke-linejoin="round"/>
<path d="M10.4804 5.92773C10.1604 5.92773 9.84039 6.17389 9.92039 6.58414L10.0804 11.179H10.4804H10.8004H11.2004L11.3604 6.58414C11.3604 6.25594 11.1204 5.92773 10.8004 5.92773H10.4804Z" fill="#828282"/>
<path d="M10.5605 13.477C11.0023 13.477 11.3605 13.1096 11.3605 12.6565C11.3605 12.2033 11.0023 11.8359 10.5605 11.8359C10.1187 11.8359 9.7605 12.2033 9.7605 12.6565C9.7605 13.1096 10.1187 13.477 10.5605 13.477Z" fill="#828282"/>
</svg>
