<svg width="24" height="24" viewBox="0 0 24 24" fill="none" xmlns="http://www.w3.org/2000/svg">
<path d="M22.2858 13.6239V10.3817L20.3628 10.2475C20.1437 9.19211 19.7278 8.20826 19.1553 7.33621L20.4209 5.87832L18.1268 3.57969L16.6689 4.84528C15.7968 4.27286 14.813 3.85696 13.7576 3.63783L13.6234 1.71484H10.3812L10.247 3.63783C9.18715 3.86143 8.2033 4.27733 7.33125 4.84528L5.87336 3.57969L3.5792 5.87385L4.84479 7.33174C4.27237 8.20379 3.85647 9.18764 3.63734 10.243L1.71436 10.3772V13.6194L3.63734 13.7536C3.85647 14.809 4.27237 15.7929 4.84479 16.6649L3.5792 18.1273L5.87336 20.4214L7.33125 19.1558C8.2033 19.7283 9.18715 20.1442 10.2426 20.3633L10.3767 22.2863H13.619L13.7531 20.3633C14.8085 20.1442 15.7924 19.7283 16.6644 19.1558L18.1223 20.4214L20.4165 18.1273L19.1553 16.6694C19.7278 15.7973 20.1437 14.8135 20.3628 13.7581L22.2858 13.6239ZM12.0001 17.3402C9.05299 17.3402 6.66044 14.9476 6.66044 12.0006C6.66044 9.05348 9.05299 6.66093 12.0001 6.66093C14.9472 6.66093 17.3397 9.05348 17.3397 12.0006C17.3397 14.9476 14.9472 17.3402 12.0001 17.3402Z" stroke="#828282" stroke-miterlimit="10" stroke-linecap="round" stroke-linejoin="round"/>
</svg>
