<svg width="24" height="24" viewBox="0 0 24 24" fill="none" xmlns="http://www.w3.org/2000/svg">
<path d="M22.4524 9.36657V8.86657H21.9524H2.04762H1.54762V9.36657V17.8929C1.54762 18.5009 1.74713 19.0986 2.12302 19.5519L2.50788 19.2327L2.12302 19.5519C2.50114 20.0078 3.03626 20.2876 3.61905 20.2876H20.381C20.9637 20.2876 21.4989 20.0078 21.877 19.5519C22.2529 19.0986 22.4524 18.5009 22.4524 17.8929V9.36657ZM1.54762 8.10341V8.60341H2.04762H21.9524H22.4524V8.10341V6.20868C22.4524 5.60066 22.2529 5.00293 21.877 4.5497C21.4989 4.09379 20.9637 3.81394 20.381 3.81394H3.61905C3.03626 3.81394 2.50114 4.09379 2.12302 4.5497C1.74713 5.00292 1.54762 5.60066 1.54762 6.20868V8.10341ZM1.5 6.20868C1.5 5.47665 1.74198 4.78923 2.15196 4.2949C2.55971 3.80326 3.09045 3.55078 3.61905 3.55078H20.381C20.9095 3.55078 21.4403 3.80326 21.848 4.2949C22.258 4.78923 22.5 5.47665 22.5 6.20868V17.8929C22.5 18.6249 22.258 19.3123 21.848 19.8067C21.4403 20.2983 20.9095 20.5508 20.381 20.5508H3.61905C3.09045 20.5508 2.55971 20.2983 2.15196 19.8067C1.74198 19.3123 1.5 18.6249 1.5 17.8929V6.20868Z" fill="#828282" stroke="#828282"/>
<path d="M11 11.2383V14.8573H13.7143" stroke="#828282" stroke-linecap="round" stroke-linejoin="round"/>
<path d="M10.9555 16.8613C10.7746 16.8613 10.6011 16.9152 10.4732 17.0112C10.3453 17.1071 10.2734 17.2372 10.2734 17.3729C10.2734 17.5085 10.3453 17.6386 10.4732 17.7346C10.6011 17.8305 10.7746 17.8844 10.9555 17.8844H13.6837C13.8646 17.8844 14.0381 17.8305 14.166 17.7346C14.2939 17.6386 14.3657 17.5085 14.3657 17.3729C14.3657 17.2372 14.2939 17.1071 14.166 17.0112C14.0381 16.9152 13.8646 16.8613 13.6837 16.8613H10.9555Z" fill="#828282"/>
</svg>
